<svg version="1.1" xmlns="http://www.w3.org/2000/svg" viewBox="0 0 250 250"><desc>Created with Snap</desc><defs></defs><g transform="matrix(0.0367,0,0,0.0367,106.2271,135.5467)"><rect x="-2895.7153112016395" y="-1747.825" width="6814.915311201639" height="2920.65" fill="#f2d398" style=""></rect><g transform="matrix(25.6535,0,0,25.6535,-2716.7828,-1568.8925)"><g><path d="M78.4,66.5c-5.5,4.8-9.9,15.2-9.9,15.2s-6.9-11.4-12.9-15.3c-9.5-6.1-13.6-6.2-13.6-6.2V65c0,0,7.8,1.2,11.7,4.6   c8.2,7.1,14.8,18.5,14.8,18.5S74.4,75,80.1,70.5C88.1,64.3,95,65,95,65v-4.8C95,60.1,85.1,60.7,78.4,66.5z" fill="#292929" style=""></path><path d="M42,80c-6.4-3.6-17.8-4.3-17.8-4.3s8.7-10.1,10.5-17C37.5,47.9,36.2,44,36.2,44l-4.6,1.6c0,0,1.3,7.7-0.6,12.4   c-4.1,9.9-13,19.8-13,19.8s14.6,1.3,20.7,5.1c8.6,5.4,10.2,12,10.2,12l4.6-1.6C53.5,93.4,49.7,84.4,42,80z" fill="#292929" style=""></path><path d="M35.3,36.8c11.3-0.9,14.6-3.4,14.6-3.4l-3-3.8c0,0-6.9,3.7-12.1,3.4c-10.9-0.6-23.3-5.6-23.3-5.6s3.5,14,1.8,20.9   C10.9,58.2,5,61.8,5,61.8l3,3.8c0,0,7.5-6.5,9.1-15.1c1.3-7.1-1.7-18-1.7-18S28,37.4,35.3,36.8z" fill="#292929" style=""></path><path d="M37.4,17.8c7.3-1.1,16.7-7.4,16.7-7.4s-0.6,13.2,2.4,19.8c4.6,10.2,8,12.5,8,12.5l2.7-4c0,0-5.9-5.2-7.3-10.2   C56.9,18.2,57.7,5,57.7,5s-12.3,7.8-19.5,8.5c-10.2,1-15.6-3.3-15.6-3.3l-2.7,4.1C19.9,14.2,28.6,19.1,37.4,17.8z" fill="#292929" style=""></path><path d="M65,60.5c0,0,3.1-7.2,7.4-10.1c9-6.1,21.9-9.7,21.9-9.7s-11.5-8.9-14.5-15.4c-4.2-9.1-1.9-15.6-1.9-15.6l-4.8-1.2   c0,0-1.9,9.6,2.2,17.4c3.4,6.4,12.5,13.2,12.5,13.2S75,42.9,69.6,47.8c-8.3,7.6-9.4,11.5-9.4,11.5L65,60.5z" fill="#292929" style=""></path></g><desc>Created with Snap</desc><defs></defs></g><g><g transform="matrix(0.5,0,0,-0.5,0,0)"><path d="M938 1600Q967 1559 967 1474Q967 1390 961 1337Q956 1285 945 1236Q921 1126 878 1070Q841 1263 782 1346Q720 1430 620 1430Q521 1430 465 1392Q409 1354 379 1292Q329 1189 329 988Q329 788 374 621Q420 455 504 335Q681 80 965 80Q961 35 918 2Q905 -8 890 -10Q527 -10 298 257Q55 541 55 1031Q55 1287 205 1416Q338 1530 569 1530L736 1528Q854 1528 902 1562Q922 1577 938 1600ZM1455 0L1160 0Q1206 158 1206 543Q1206 817 1162 917Q1144 958 1098 1010L1453 1010Q1435 947 1424 837Q1518 955 1686 1004Q1758 1025 1791 1070Q1824 991 1824 934Q1824 877 1818 828Q1812 780 1800 734Q1774 635 1731 580Q1694 775 1616 808Q1526 847 1440 702Q1422 672 1410 638Q1409 615 1409 591Q1409 567 1409 543Q1409 158 1455 0ZM2510 301L2510 331L2511 553Q2511 762 2500 826Q2489 890 2482 915Q2476 941 2467 963L2448 1010L2743 1010L2738 964Q2732 916 2730 824L2726 672Q2721 497 2721 345Q2721 193 2702 85Q2684 -23 2653 -105Q2622 -187 2582 -247Q2542 -306 2498 -346Q2422 -418 2328 -450Q2308 -442 2289 -421Q2271 -399 2267 -380Q2355 -335 2408 -242Q2483 -110 2503 139Q2387 -20 2218 -20Q2098 -20 2032 74Q1969 165 1969 324L1969 459Q1969 504 1968 551L1968 642Q1966 729 1961 777Q1957 826 1951 858Q1946 891 1938 916Q1930 942 1920 964L1898 1010L2203 1010Q2177 867 2177 469Q2177 307 2194 253Q2211 199 2236 174Q2262 150 2302 150Q2342 150 2372 162Q2403 175 2428 196Q2477 234 2510 301ZM2542 386L2548 410L2542 386ZM3199 946Q3311 1030 3479 1030Q3717 1030 3790 833Q3814 768 3814 669Q3814 571 3791 477Q3769 384 3729 309Q3689 234 3634 177Q3580 120 3516 82Q3388 5 3244 1Q3246 -53 3250 -105L3260 -211Q3269 -319 3322 -394L3356 -440L2991 -440Q3019 -344 3023 -248Q3028 -152 3030 -84Q3033 -15 3034 58Q3038 228 3038 356Q3038 768 3012 860Q2996 917 2971 951L2929 1010L3198 1010Q3192 990 3199 946ZM3564 643Q3564 930 3419 930Q3347 930 3299 866Q3247 797 3247 677L3240 203L3240 148Q3240 121 3241 93Q3386 115 3476 267Q3564 417 3564 643ZM4328 1410Q4307 1333 4307 1225Q4307 1118 4311 1088Q4316 1058 4326 1040Q4345 1010 4400 1010L4668 1010Q4668 954 4641 924Q4592 870 4521 870Q4486 870 4459 880Q4410 900 4383 900Q4356 900 4339 889Q4322 879 4312 859Q4294 823 4294 702Q4294 581 4301 454Q4309 327 4339 241Q4369 156 4430 113Q4491 70 4598 70Q4598 39 4556 -4Q4545 -16 4537 -20Q4360 -20 4272 22Q4171 72 4128 200Q4085 330 4085 585Q4085 808 4073 848Q4061 889 4051 902Q4039 917 3993 939Q4055 986 4116 1114L4166 1219Q4219 1339 4256 1374Q4294 1410 4328 1410ZM5215 930Q5125 930 5085 840Q5046 750 5046 537Q5046 80 5215 80Q5305 80 5344 202Q5384 324 5384 537Q5384 750 5344 840Q5305 930 5215 930ZM4794 575Q4794 1030 5215 1030Q5636 1030 5636 575Q5636 299 5520 138Q5407 -20 5215 -20Q5023 -20 4910 138Q4794 299 4794 575ZM6155 720L6154 458Q6154 134 6193 0L5898 0Q5926 97 5933 229Q5948 548 5948 724Q5948 900 5947 960Q5946 1021 5945 1082Q5939 1299 5924 1355Q5910 1412 5897 1437Q5885 1463 5869 1484L5836 1530L6201 1530Q6173 1429 6168 1336Q6164 1244 6161 1173Q6159 1102 6157 1025Q6155 897 6155 720ZM6991 301L6991 331L6992 553Q6992 762 6981 826Q6970 890 6963 915Q6957 941 6948 963L6929 1010L7224 1010L7219 964Q7213 916 7211 824L7207 672Q7202 497 7202 345Q7202 193 7183 85Q7165 -23 7134 -105Q7103 -187 7063 -247Q7023 -306 6979 -346Q6903 -418 6809 -450Q6789 -442 6770 -421Q6752 -399 6748 -380Q6836 -335 6889 -242Q6964 -110 6984 139Q6868 -20 6699 -20Q6579 -20 6513 74Q6450 165 6450 324L6450 459Q6450 504 6449 551L6449 642Q6447 729 6442 777Q6438 826 6432 858Q6427 891 6419 916Q6411 942 6401 964L6379 1010L6684 1010Q6658 867 6658 469Q6658 307 6675 253Q6692 199 6717 174Q6743 150 6783 150Q6823 150 6853 162Q6884 175 6909 196Q6958 234 6991 301ZM7023 386L7029 410L7023 386Z" fill="#292929" style=""></path></g></g></g></svg>